<svg xmlns="http://www.w3.org/2000/svg" width="546.134" height="384" viewBox="0 0 546.134 384"><g fill="#fff" stroke="#707070" stroke-width="1"><path d="M181 86h222v210H181z" stroke="none"/><path fill="none" d="M181.5 86.5h221v209h-221z"/></g><path d="M534.722 60.083a68.622 68.622 0 00-48.284-48.6C443.848 0 273.067 0 273.067 0S102.287 0 59.696 11.486a68.624 68.624 0 00-48.284 48.6C0 102.95 0 192.388 0 192.388s0 89.438 11.412 132.3c6.281 23.65 24.787 41.5 48.284 47.821C102.287 384 273.067 384 273.067 384s170.78 0 213.371-11.486c23.5-6.321 42-24.171 48.284-47.821 11.412-42.867 11.412-132.3 11.412-132.3s0-89.438-11.412-132.3zm-317.51 213.508V111.185l142.739 81.205-142.739 81.2z" fill="#ff0101"/></svg>